HIERARCHY
ROOT joint_Root
{
	OFFSET 0.0 0.0 0.0
	CHANNELS 6 Xposition Yposition Zposition Zrotation Xrotation Yrotation 
	JOINT Hips
	{
		OFFSET -0.726466 93.3139 -2.00062
		CHANNELS 6 Xposition Yposition Zposition Zrotation Xrotation Yrotation 
		JOINT Spine
		{
			OFFSET 15.7357 0.0 0.0
			CHANNELS 6 Xposition Yposition Zposition Zrotation Xrotation Yrotation 
			JOINT Chest
			{
				OFFSET 8.98455 -0.406207 0.0
				CHANNELS 6 Xposition Yposition Zposition Zrotation Xrotation Yrotation 
				JOINT Neck
				{
					OFFSET 16.3773 0.0 0.0
					CHANNELS 6 Xposition Yposition Zposition Zrotation Xrotation Yrotation 
					JOINT Head
					{
						OFFSET 6.45672 0.0 0.0
						CHANNELS 6 Xposition Yposition Zposition Zrotation Xrotation Yrotation 
						End Site
						{
							OFFSET 0.0 0.0 0.0
						}
					}
				}
				JOINT Shoulder_L
				{
					OFFSET 12.9942 -0.242716 4.98039
					CHANNELS 6 Xposition Yposition Zposition Zrotation Xrotation Yrotation 
					JOINT UpperArm_L
					{
						OFFSET 5.34809 0.0 0.0
						CHANNELS 6 Xposition Yposition Zposition Zrotation Xrotation Yrotation 
						JOINT LowerArm_L
						{
							OFFSET 24.3286 1.87007e-05 0.0
							CHANNELS 6 Xposition Yposition Zposition Zrotation Xrotation Yrotation 
							JOINT Hand_L
							{
								OFFSET 22.2916 0.0 0.0
								CHANNELS 6 Xposition Yposition Zposition Zrotation Xrotation Yrotation 
								End Site
								{
									OFFSET 0.0 0.0 0.0
								}
							}
						}
					}
				}
				JOINT Shoulder_R
				{
					OFFSET 12.9945 -0.242716 -4.98039
					CHANNELS 6 Xposition Yposition Zposition Zrotation Xrotation Yrotation 
					JOINT UpperArm_R
					{
						OFFSET -5.34813 0.0 0.0
						CHANNELS 6 Xposition Yposition Zposition Zrotation Xrotation Yrotation 
						JOINT LowerArm_R
						{
							OFFSET -24.3289 0.000322201 0.0
							CHANNELS 6 Xposition Yposition Zposition Zrotation Xrotation Yrotation 
							JOINT Hand_R
							{
								OFFSET -22.2915 -0.000108084 0.0
								CHANNELS 6 Xposition Yposition Zposition Zrotation Xrotation Yrotation 
								End Site
								{
									OFFSET 0.0 0.0 0.0
								}
							}
						}
					}
				}
			}
		}
		JOINT UpperLeg_L
		{
			OFFSET -2.19248 -6.46944 0.0
			CHANNELS 6 Xposition Yposition Zposition Zrotation Xrotation Yrotation 
			JOINT LowerLeg_L
			{
				OFFSET 39.0811 0.0 -1.23785e-05
				CHANNELS 6 Xposition Yposition Zposition Zrotation Xrotation Yrotation 
				JOINT Foot_L
				{
					OFFSET 40.9854 0.0 -1.26872e-05
					CHANNELS 6 Xposition Yposition Zposition Zrotation Xrotation Yrotation 
					JOINT Toes_L
					{
						OFFSET 11.7543 0.0 0.0
						CHANNELS 6 Xposition Yposition Zposition Zrotation Xrotation Yrotation 
						End Site
						{
							OFFSET 0.0 0.0 0.0
						}
					}
				}
			}
		}
		JOINT UpperLeg_R
		{
			OFFSET -2.19251 6.46944 0.0
			CHANNELS 6 Xposition Yposition Zposition Zrotation Xrotation Yrotation 
			JOINT LowerLeg_R
			{
				OFFSET -39.0811 -0.00228153 -0.0401928
				CHANNELS 6 Xposition Yposition Zposition Zrotation Xrotation Yrotation 
				JOINT Foot_R
				{
					OFFSET -40.9854 0.0 0.0
					CHANNELS 6 Xposition Yposition Zposition Zrotation Xrotation Yrotation 
					JOINT Toes_R
					{
						OFFSET -11.7543 0.0 0.0
						CHANNELS 6 Xposition Yposition Zposition Zrotation Xrotation Yrotation 
						End Site
						{
							OFFSET 0.0 0.0 0.0
						}
					}
				}
			}
		}
	}
}
MOTION
Frames:	7
Frame Time:	0.0333333
0.000000 0.000000 0.000000 0.000000 0.000000 -0.000000 -1.407720 92.058200 -1.801980 87.531100 -1.024980 3.538200 15.735700 0.000005 -0.000001 86.807500 85.501300 -86.288800 8.984550 -0.406207 -0.000000 1.220050 -0.530474 1.042200 16.377300 -0.000001 -0.000001 0.306500 -3.247550 1.364280 6.456720 -0.000001 -0.000000 3.004010 -2.309580 -3.036180 12.994200 -0.242716 4.980390 -89.941300 -0.195803 -73.297200 5.348090 -0.000007 -0.000001 -66.532500 37.580600 -15.145000 24.328600 0.000019 0.000005 3.467770 7.678590 -24.394600 22.291600 -0.000001 0.000005 6.320540 5.530010 -7.790280 12.994500 -0.242716 -4.980390 88.098500 5.693360 -71.497000 -5.348130 -0.000001 -0.000004 -66.554100 36.276400 -14.977800 -24.328900 0.000322 -0.000009 3.549020 8.914830 -21.816600 -22.291500 -0.000108 -0.000004 9.781270 5.538520 -8.175600 -2.192480 -6.469440 -0.000000 -168.628000 -14.745300 -2.299490 39.081100 -0.000007 -0.000012 -0.189719 0.481240 21.516000 40.985400 -0.000006 -0.000013 -6.018590 3.689610 -63.882500 11.754300 -0.000000 0.000003 -0.000029 -0.000356 -16.591500 -2.192510 6.469440 -0.000001 174.911000 20.562700 179.566000 -39.081100 -0.002282 -0.040193 -0.057422 0.172668 19.381800 -40.985400 0.000008 0.000006 -3.192190 3.245540 -63.431800 -11.754300 -0.000006 -0.000006 -0.006402 -0.074444 -19.603200
0.000000 0.000000 0.000000 0.000000 0.000000 -0.000000 -1.425730 92.068600 -1.843140 87.537400 -0.925941 3.455760 15.735700 0.000005 -0.000001 86.542700 85.549600 -86.036200 8.984550 -0.406207 -0.000000 1.121260 -0.565889 1.017540 16.377300 -0.000001 -0.000001 0.030718 -3.147680 1.398850 6.456720 -0.000001 -0.000000 2.706530 -2.157640 -2.899400 12.994200 -0.242716 4.980390 -89.930100 -0.227040 -72.877800 5.348090 -0.000007 -0.000001 -66.516700 33.635700 -14.571000 24.328600 0.000019 0.000005 3.467200 7.319730 -25.434100 22.291600 -0.000001 0.000005 8.611310 5.542020 -8.332370 12.994500 -0.242716 -4.980390 88.124100 5.454950 -70.989000 -5.348130 -0.000001 -0.000004 -66.992200 32.415700 -14.093000 -24.328900 0.000322 -0.000009 4.188710 9.734710 -23.424700 -22.291500 -0.000108 -0.000004 10.669200 5.537940 -8.148590 -2.192480 -6.469440 -0.000000 -168.672000 -14.700800 -2.431160 39.081100 -0.000007 -0.000012 -0.186151 0.473254 21.472100 40.985400 -0.000006 -0.000013 -6.012830 3.701870 -63.807000 11.754300 -0.000000 0.000003 -0.000029 -0.000354 -16.591400 -2.192510 6.469440 -0.000001 174.962000 20.598900 179.468000 -39.081100 -0.002282 -0.040193 -0.055567 0.167684 19.350900 -40.985400 0.000008 0.000006 -3.143410 3.215110 -63.402600 -11.754300 -0.000006 -0.000006 -0.006593 -0.076131 -19.672000
0.000000 0.000000 0.000000 0.000000 0.000000 -0.000000 -1.447230 92.094700 -1.925950 87.517300 -0.855404 3.292900 15.735700 0.000005 -0.000001 86.259500 85.637800 -85.760000 8.984550 -0.406207 -0.000000 0.942721 -0.598674 1.003150 16.377300 -0.000001 -0.000001 -0.287577 -3.039830 1.430220 6.456720 -0.000001 -0.000000 2.409910 -1.946990 -2.628550 12.994200 -0.242716 4.980390 -89.931300 -0.218442 -72.547100 5.348090 -0.000007 -0.000001 -65.534700 27.749000 -14.361300 24.328600 0.000019 0.000005 3.073170 6.123010 -26.718800 22.291600 -0.000001 0.000005 10.016100 5.545560 -8.497290 12.994500 -0.242716 -4.980390 88.135000 5.304470 -70.596900 -5.348130 -0.000001 -0.000004 -65.903300 27.663400 -14.106400 -24.328900 0.000322 -0.000009 4.058890 8.970590 -24.475300 -22.291500 -0.000108 -0.000004 11.729800 5.534750 -8.005830 -2.192480 -6.469440 -0.000000 -168.700000 -14.736700 -2.609940 39.081100 -0.000007 -0.000012 -0.184649 0.472657 21.339000 40.985400 -0.000006 -0.000013 -6.004810 3.739670 -63.666300 11.754300 -0.000000 0.000003 -0.000035 -0.000413 -16.593600 -2.192510 6.469440 -0.000001 175.108000 20.698600 179.276000 -39.081100 -0.002282 -0.040193 -0.050111 0.152873 19.266200 -40.985400 0.000008 0.000006 -2.939020 3.132550 -63.325300 -11.754300 -0.000006 -0.000006 -0.006469 -0.075037 -19.627400
0.000000 0.000000 0.000000 0.000000 0.000000 -0.000000 -1.452600 92.107000 -2.011840 87.539000 -0.872702 3.203320 15.735700 0.000005 -0.000001 86.158200 85.691200 -85.686600 8.984550 -0.406207 -0.000000 0.834959 -0.605695 0.946917 16.377300 -0.000001 -0.000001 -0.672627 -2.948440 1.462300 6.456720 -0.000001 -0.000000 1.918700 -1.746060 -2.258720 12.994200 -0.242716 4.980390 -89.906800 -0.293818 -72.394200 5.348090 -0.000007 -0.000001 -63.067700 21.303200 -15.265300 24.328600 0.000019 0.000005 2.836610 5.418430 -27.686700 22.291600 -0.000001 0.000005 10.825400 5.549300 -8.672630 12.994500 -0.242716 -4.980390 88.204800 5.053080 -70.412200 -5.348130 -0.000001 -0.000004 -63.550000 22.094800 -15.303200 -24.328900 0.000322 -0.000009 3.888960 8.498490 -24.708100 -22.291500 -0.000108 -0.000004 12.318900 5.529580 -7.777140 -2.192480 -6.469440 -0.000000 -168.748000 -14.750300 -2.717840 39.081100 -0.000007 -0.000012 -0.181931 0.467633 21.258600 40.985400 -0.000006 -0.000013 -6.004770 3.754750 -63.570100 11.754300 -0.000000 0.000003 -0.000028 -0.000338 -16.590800 -2.192510 6.469440 -0.000001 175.144000 20.702400 179.131000 -39.081100 -0.002282 -0.040193 -0.050231 0.153516 19.231400 -40.985400 0.000008 0.000006 -2.981400 3.149020 -63.245500 -11.754300 -0.000006 -0.000006 -0.006566 -0.075893 -19.662300
0.000000 0.000000 0.000000 0.000000 0.000000 -0.000000 -1.461100 92.121600 -2.115260 87.495200 -0.899957 3.102880 15.735700 0.000005 -0.000001 85.964800 85.775000 -85.496300 8.984550 -0.406207 -0.000000 0.665810 -0.623437 0.939823 16.377300 -0.000001 -0.000001 -1.175260 -2.883520 1.582850 6.456720 -0.000001 -0.000000 1.413820 -1.630890 -1.898000 12.994200 -0.242716 4.980390 -89.832600 -0.524186 -72.287200 5.348090 -0.000007 -0.000001 -59.756100 14.485500 -16.782600 24.328600 0.000019 0.000005 2.862900 5.218250 -28.803800 22.291600 -0.000001 0.000005 11.282300 5.549430 -8.679140 12.994500 -0.242716 -4.980390 88.284300 4.796960 -70.293400 -5.348130 -0.000001 -0.000004 -60.393800 15.467500 -17.248500 -24.328900 0.000322 -0.000009 3.846430 8.465340 -24.553000 -22.291500 -0.000108 -0.000004 12.526000 5.512440 -7.042770 -2.192480 -6.469440 -0.000000 -168.749000 -14.784500 -2.889060 39.081100 -0.000007 -0.000012 -0.181083 0.465695 21.248600 40.985400 -0.000006 -0.000013 -5.996480 3.723630 -63.491600 11.754300 -0.000000 0.000003 -0.000027 -0.000328 -16.590400 -2.192510 6.469440 -0.000001 175.263000 20.676600 178.979000 -39.081100 -0.002282 -0.040193 -0.049684 0.152693 19.144300 -40.985400 0.000008 0.000006 -2.983500 3.143410 -63.126800 -11.754300 -0.000006 -0.000006 -0.006349 -0.073969 -19.583800
0.000000 0.000000 0.000000 0.000000 0.000000 -0.000000 -1.455030 92.149000 -2.205210 87.468600 -1.003240 2.959720 15.735700 0.000005 -0.000001 86.232100 85.898300 -85.757800 8.984550 -0.406207 -0.000000 0.422247 -0.569306 0.950047 16.377300 -0.000001 -0.000001 -1.785710 -2.849340 1.626150 6.456720 -0.000001 -0.000000 0.851488 -1.679330 -1.476740 12.994200 -0.242716 4.980390 -89.736300 -0.826385 -72.298200 5.348090 -0.000007 -0.000001 -56.239500 7.199650 -18.363300 24.328600 0.000019 0.000005 2.585460 4.388350 -30.549900 22.291600 -0.000001 0.000005 12.014800 5.556330 -9.007300 12.994500 -0.242716 -4.980390 88.394600 4.470690 -70.223900 -5.348130 -0.000001 -0.000004 -57.085700 7.687600 -19.394500 -24.328900 0.000322 -0.000009 3.818830 8.206780 -25.067900 -22.291500 -0.000108 -0.000004 12.446600 5.496680 -6.402310 -2.192480 -6.469440 -0.000000 -168.795000 -14.756900 -3.028670 39.081100 -0.000007 -0.000012 -0.178526 0.462058 21.125300 40.985400 -0.000006 -0.000013 -6.010050 3.555470 -63.382000 11.754300 -0.000000 0.000003 -0.000025 -0.000307 -16.589600 -2.192510 6.469440 -0.000001 175.402000 20.613900 178.781000 -39.081100 -0.002282 -0.040193 -0.044070 0.137322 19.040900 -40.985400 0.000008 0.000006 -2.764060 3.123930 -63.015900 -11.754300 -0.000006 -0.000006 -0.006460 -0.074954 -19.624000
0.000000 0.000000 0.000000 0.000000 0.000000 -0.000000 -1.435820 92.176000 -2.293990 87.475700 -1.106660 2.718500 15.735700 0.000005 -0.000001 86.537000 86.046700 -86.055000 8.984550 -0.406207 -0.000000 0.128535 -0.509582 0.963889 16.377300 -0.000001 -0.000001 -2.530640 -2.882730 1.809120 6.456720 -0.000001 -0.000000 0.225636 -1.702550 -1.344550 12.994200 -0.242716 4.980390 -89.646300 -1.103180 -72.219900 5.348090 -0.000007 -0.000001 -52.426300 0.187099 -20.186000 24.328600 0.000019 0.000005 1.389850 2.133560 -33.103900 22.291600 -0.000001 0.000005 12.792300 5.567830 -9.576310 12.994500 -0.242716 -4.980390 88.539800 4.044010 -70.127400 -5.348130 -0.000001 -0.000004 -53.495500 0.362952 -21.778500 -24.328900 0.000322 -0.000009 3.447420 6.891280 -26.668900 -22.291500 -0.000108 -0.000004 13.670600 5.496010 -6.374230 -2.192480 -6.469440 -0.000000 -168.889000 -14.809000 -3.227410 39.081100 -0.000007 -0.000012 -0.175551 0.458223 20.962700 40.985400 -0.000006 -0.000013 -6.009530 3.469980 -63.265200 11.754300 -0.000000 0.000003 -0.000025 -0.000305 -16.589500 -2.192510 6.469440 -0.000001 175.521000 20.569200 178.489000 -39.081100 -0.002282 -0.040193 -0.041298 0.130166 18.921900 -40.985400 0.000008 0.000006 -2.673820 3.122050 -62.882700 -11.754300 -0.000006 -0.000006 -0.006352 -0.073998 -19.585000
